<?xml version="1.0" encoding="utf-8"?>
<!-- Generator: Adobe Illustrator 24.0.2, SVG Export Plug-In . SVG Version: 6.00 Build 0)  -->
<svg version="1.1" xmlns="http://www.w3.org/2000/svg" xmlns:xlink="http://www.w3.org/1999/xlink" x="0px" y="0px"
	 viewBox="0 0 1440 1500" style="enable-background:new 0 0 1440 1500;" xml:space="preserve">
<style type="text/css">
	.st0{fill:#43636B;}
	.st1{fill:#405B60;}
	.st2{fill:#D8E9F0;}
	.st3{fill:#B8DBE8;}
	.st4{fill:#FFFFFF;}
	.st5{fill:#ECF0F9;}
	.st6{fill:none;}
	.st7{display:none;}
	.st8{display:inline;fill:#D8E9F0;}
	.st9{display:inline;fill:#B8DBE8;}
	.st10{display:inline;fill:#FFFFFF;}
	.st11{display:inline;fill:#ECF0F9;}
	.st12{display:inline;fill:#8AB5C4;}
	.st13{fill:#385863;}
	.st14{fill:#1C2B2D;}
</style>
<g id="Layer_8">
</g>
<g id="Layer_12">
	<g>
		
			<image style="overflow:visible;opacity:0.25;" width="152" height="211" xlink:href="5B6A718E.png"  transform="matrix(1 0 0 1 452 774)">
		</image>
		<g>
			<g>
				<polygon class="st0" points="514.04,864.48 519.66,873.52 512.57,870.35 507.93,890.88 517.21,897.48 507.68,892.59 
					506.7,896.5 514.53,899.92 506.7,897.72 504.75,905.3 516.97,910.67 516.97,914.09 504.02,908.72 501.08,921.67 513.06,926.8 
					500.84,923.14 500.6,924.36 509.64,928.51 500.35,925.34 496.93,940 521.61,940 521.61,831 				"/>
				<polygon class="st1" points="543.36,930.96 529.68,934.13 543.12,929.25 541.9,924.11 529.19,928.51 541.41,922.4 
					538.48,908.96 524.79,914.34 537.74,905.54 526.26,908.96 537.25,903.1 525.77,906.52 536.77,900.9 535.79,895.76 
					526.01,898.45 535.54,894.3 534.57,890.63 525.03,894.05 534.57,889.9 532.37,880.37 525.77,883.06 532.12,879.39 
					529.68,868.15 523.32,872.79 529.19,865.7 528.21,861.06 523.08,865.22 527.48,858.13 521.61,831 521.61,940 545.32,940 				"/>
			</g>
		</g>
	</g>
	<g>
		
			<image style="overflow:visible;opacity:0.25;" width="162" height="236" xlink:href="5B6A7192.png"  transform="matrix(1 0 0 1 1033 755)">
		</image>
		<g>
			<g>
				<polygon class="st0" points="1098,853.03 1104.89,864.11 1096.21,860.21 1090.52,885.37 1101.9,893.46 1090.22,887.47 
					1089.02,892.26 1098.6,896.45 1089.02,893.76 1086.62,903.04 1101.6,909.63 1101.6,913.82 1085.72,907.23 1082.13,923.1 
					1096.8,929.39 1081.83,924.9 1081.53,926.4 1092.61,931.49 1081.23,927.6 1077.04,945.56 1107.29,945.56 1107.29,812 				"/>
				<polygon class="st1" points="1133.94,934.48 1117.17,938.38 1133.64,932.39 1132.14,926.1 1116.57,931.49 1131.54,924 
					1127.95,907.53 1111.18,914.12 1127.05,903.34 1112.98,907.53 1126.45,900.34 1112.38,904.54 1125.85,897.65 1124.65,891.36 
					1112.68,894.65 1124.36,889.56 1123.16,885.07 1111.48,889.26 1123.16,884.17 1120.46,872.49 1112.38,875.79 1120.16,871.3 
					1117.17,857.52 1109.38,863.21 1116.57,854.52 1115.37,848.83 1109.08,853.93 1114.47,845.24 1107.29,812 1107.29,945.56 
					1136.33,945.56 				"/>
			</g>
		</g>
	</g>
</g>
<g id="Layer_7">
	<g>
		
			<image style="overflow:visible;opacity:0.25;" width="1156" height="256" xlink:href="5B6A7195.png"  transform="matrix(1 0 0 1 361 835)">
		</image>
		<g>
			<path class="st0" d="M405,946c0,0,257-51,380-53s512,35,643,8s-196,135-196,135l-515,10L405,946z"/>
		</g>
	</g>
</g>
<g id="Layer_11">
	<g>
		
			<image style="overflow:visible;opacity:0.25;" width="250" height="433" xlink:href="5B6A7196.png"  transform="matrix(1 0 0 1 1075 590)">
		</image>
		<g>
			<g>
				<g>
					<polygon class="st2" points="1171.88,748.67 1188.95,776.13 1167.43,766.49 1153.33,828.83 1181.53,848.87 1152.58,834.02 
						1149.62,845.9 1173.36,856.29 1149.62,849.61 1143.68,872.61 1180.79,888.94 1180.79,899.33 1141.45,883 1132.55,922.34 
						1168.91,937.92 1131.8,926.79 1131.06,930.5 1158.52,943.12 1130.32,933.47 1119.93,978 1194.89,978 1194.89,647 					"/>
				</g>
				<g>
					<polygon class="st3" points="1260.94,950.54 1219.38,960.19 1260.2,945.35 1256.49,929.76 1217.89,943.12 1255,924.57 
						1246.09,883.75 1204.53,900.07 1243.87,873.36 1208.99,883.75 1242.38,865.93 1207.5,876.33 1240.9,859.26 1237.93,843.67 
						1208.25,851.83 1237.19,839.22 1234.22,828.09 1205.28,838.48 1234.22,825.86 1227.54,796.91 1207.5,805.08 1226.8,793.95 
						1219.38,759.81 1200.08,773.91 1217.89,752.39 1214.92,738.28 1199.34,750.9 1212.7,729.38 1194.89,647 1194.89,978 
						1266.88,978 					"/>
				</g>
			</g>
		</g>
	</g>
	<g>
		
			<image style="overflow:visible;opacity:0.25;" width="173" height="300" xlink:href="5B6A7194.png"  transform="matrix(1 0 0 1 -15.0529 685.9471)">
		</image>
		<g>
			<g>
				<g>
					<polygon class="st2" points="51.87,795.88 63.6,814.76 48.81,808.12 39.12,850.97 58.5,864.74 38.61,854.54 36.57,862.7 
						52.89,869.85 36.57,865.25 32.49,881.07 57.99,892.29 57.99,899.43 30.96,888.21 24.83,915.24 49.83,925.96 24.32,918.3 
						23.81,920.85 42.69,929.53 23.3,922.89 16.16,953.5 67.68,953.5 67.68,726 					"/>
				</g>
				<g>
					<polygon class="st3" points="113.08,934.63 84.52,941.26 112.57,931.06 110.02,920.34 83.5,929.53 109,916.77 102.88,888.72 
						74.31,899.94 101.35,881.58 77.37,888.72 100.33,876.48 76.35,883.62 99.31,871.89 97.27,861.17 76.86,866.78 96.76,858.11 
						94.72,850.46 74.82,857.6 94.72,848.93 90.13,829.04 76.35,834.65 89.62,827 84.52,803.53 71.25,813.23 83.5,798.43 
						81.45,788.74 70.74,797.41 79.92,782.62 67.68,726 67.68,953.5 117.16,953.5 					"/>
				</g>
			</g>
		</g>
	</g>
	<g>
		
			<image style="overflow:visible;opacity:0.25;" width="173" height="300" xlink:href="5B6A7193.png"  transform="matrix(1 0 0 1 830.9471 759.9471)">
		</image>
		<g>
			<g>
				<g>
					<polygon class="st2" points="897.66,869.94 909.39,888.81 894.6,882.18 884.9,925.02 904.29,938.8 884.39,928.6 882.35,936.76 
						898.68,943.9 882.35,939.31 878.27,955.12 903.78,966.34 903.78,973.48 876.74,962.26 870.62,989.3 895.62,1000.01 
						870.11,992.36 869.6,994.91 888.47,1003.58 869.09,996.95 861.95,1027.55 913.47,1027.55 913.47,800.05 					"/>
				</g>
				<g>
					<polygon class="st3" points="958.87,1008.68 930.3,1015.31 958.36,1005.11 955.81,994.4 929.28,1003.58 954.79,990.83 
						948.67,962.77 920.1,973.99 947.14,955.63 923.16,962.77 946.11,950.53 922.14,957.67 945.09,945.94 943.05,935.23 
						922.65,940.84 942.54,932.17 940.5,924.51 920.61,931.66 940.5,922.98 935.91,903.09 922.14,908.7 935.4,901.05 930.3,877.59 
						917.04,887.28 929.28,872.49 927.24,862.79 916.53,871.47 925.71,856.67 913.47,800.05 913.47,1027.55 962.95,1027.55 					"/>
				</g>
			</g>
		</g>
	</g>
</g>
<g id="Layer_2">
	<g>
		
			<image style="overflow:visible;opacity:0.25;" width="1736" height="831" xlink:href="5B6A719D.png"  transform="matrix(1 0 0 1 -172 756)">
		</image>
		<g>
			<path class="st2" d="M-128,936c0,0,279-122,587-25s283,73,362,80s119-71,357-71s328-107,328-107l-7,712l-819,17l-808-7V936z"/>
		</g>
	</g>
</g>
<g id="Layer_10">
	<g>
		
			<image style="overflow:visible;opacity:0.25;" width="352" height="662" xlink:href="5B6A719E.png"  transform="matrix(1 0 0 1 1135 448)">
		</image>
		<g>
			<g>
				<polygon class="st4" points="1267.59,677.02 1296.47,723.48 1260.05,707.15 1236.2,812.62 1283.91,846.52 1234.94,821.41 
					1229.92,841.5 1270.1,859.08 1229.92,847.78 1219.87,886.7 1282.65,914.33 1282.65,931.91 1216.11,904.28 1201.04,970.83 
					1262.56,997.2 1199.78,978.36 1198.53,984.64 1244.99,1005.99 1197.27,989.66 1179.7,1065 1306.51,1065 1306.51,505 				"/>
				<g>
					<polygon class="st5" points="1418.26,1018.54 1347.95,1034.87 1417,1009.75 1410.73,983.39 1345.44,1005.99 1408.22,974.6 
						1393.15,905.54 1322.83,933.16 1389.38,887.96 1330.37,905.54 1386.87,875.4 1327.86,892.98 1384.36,864.1 1379.34,837.74 
						1329.11,851.55 1378.08,830.2 1373.06,811.37 1324.09,828.95 1373.06,807.6 1361.76,758.63 1327.86,772.44 1360.5,753.61 
						1347.95,695.85 1315.3,719.71 1345.44,683.3 1340.41,659.44 1314.04,680.78 1336.65,644.37 1306.51,505 1306.51,1065 
						1428.3,1065 					"/>
				</g>
			</g>
		</g>
	</g>
	<g>
		
			<image style="overflow:visible;opacity:0.25;" width="289" height="545" xlink:href="5B6A719C.png"  transform="matrix(1 0 0 1 68.0273 621.0273)">
		</image>
		<g>
			<g>
				<polygon class="st4" points="176.87,809.57 200.64,847.8 170.67,834.37 151.04,921.17 190.31,949.07 150.01,928.41 
					145.87,944.94 178.94,959.41 145.87,950.11 137.61,982.14 189.28,1004.87 189.28,1019.34 134.51,996.61 122.11,1051.38 
					172.74,1073.08 121.07,1057.58 120.04,1062.74 158.27,1080.31 119.01,1066.88 104.54,1128.88 208.91,1128.88 208.91,668 				"/>
				<g>
					<polygon class="st5" points="300.88,1090.64 243.01,1104.08 299.84,1083.41 294.68,1061.71 240.94,1080.31 292.61,1054.48 
						280.21,997.64 222.34,1020.37 277.11,983.17 228.54,997.64 275.04,972.84 226.48,987.31 272.98,963.54 268.84,941.84 
						227.51,953.21 267.81,935.64 263.68,920.14 223.38,934.61 263.68,917.04 254.38,876.74 226.48,888.1 253.34,872.6 
						243.01,825.07 216.14,844.7 240.94,814.74 236.81,795.1 215.11,812.67 233.71,782.7 208.91,668 208.91,1128.88 309.14,1128.88 
											"/>
				</g>
			</g>
		</g>
	</g>
</g>
<g id="Layer_13" class="st7">
</g>
<g id="Layer_3">
	<g>
		
			<image style="overflow:visible;opacity:0.25;" width="1805" height="648" xlink:href="366269D1.png"  transform="matrix(1 0 0 1 -144 939)">
		</image>
		<g>
			<path class="st4" d="M-71.88,1032.02c0,0,97,1.22,337,24.48c240,23.25,337-56.3,470-59.97c133-3.67,248,57.52,323,59.97
				c75,2.45,583-30.6,530-48.95c-53-18.36,14,534.45,14,534.45h-1702L-71.88,1032.02z"/>
		</g>
	</g>
</g>
<g id="Layer_4" class="st7">
	<path class="st12" d="M-29.88,1263.43c0,0,173-90.24,422-100.86c249-10.62,549,130.94,785,130.94s232-159.25,358-49.55
		c126,109.71-32,253.04-32,253.04h-1585L-29.88,1263.43z"/>
</g>
<g id="Layer_5">
	<g>
		
			<image style="overflow:visible;opacity:0.51;" width="1703" height="721" xlink:href="366269D7.png"  transform="matrix(1 0 0 1 -108 1056)">
		</image>
		<g>
			<path class="st13" d="M-9,1237c0,0,435.81-18.57,511-47c238-90,513.12,46.48,513.12,46.48c141,5.1,136-152.93,227-117.24
				c91,35.68,264,186.06,289,137.63s-51.05,474.83-51.05,474.83l-1544-179.65L-9,1237z"/>
		</g>
	</g>
</g>
<g id="Layer_6">
	<g>
		
			<image style="overflow:visible;opacity:0.3;" width="1753" height="450" xlink:href="366269D0.png"  transform="matrix(1 0 0 1 -152 1140)">
		</image>
		<g>
			<path class="st14" d="M-85.88,1375.18c0,0,135-137.86,334-121.64s203,89.2,438,87.18c235-2.03,239-139.89,374-133.81
				s240.8,80.08,410.9,136.34c170.1,56.26-59.9,192.09-59.9,192.09L-99,1518L-85.88,1375.18z"/>
		</g>
	</g>
</g>
</svg>
