<?xml version="1.0" encoding="utf-8"?>
<!-- Generator: Adobe Illustrator 24.0.2, SVG Export Plug-In . SVG Version: 6.00 Build 0)  -->
<svg version="1.1" xmlns="http://www.w3.org/2000/svg" xmlns:xlink="http://www.w3.org/1999/xlink" x="0px" y="0px"
	 viewBox="0 0 1440 1440" style="enable-background:new 0 0 1440 1440;" xml:space="preserve">
<style type="text/css">
	.st0{display:none;}
	.st1{display:inline;fill:#1C2B2D;}
	.st2{fill:#2C4244;}
	.st3{fill:#334B4F;}
	.st4{fill:#43636B;}
	.st5{fill:#405B60;}
	.st6{fill:#D8E9F0;}
	.st7{fill:#B8DBE8;}
	.st8{fill:#FFFFFF;}
	.st9{fill:#ECF0F9;}
	.st10{fill:none;}
	.st11{fill:#4D1200;}
	.st12{fill:#D0F7F8;}
	.st13{fill:#FFE3E3;}
	.st14{fill:#FF8336;}
	.st15{fill:#FFCEBD;}
	.st16{fill:#00A9C5;}
	.st17{fill:#0068A1;}
	.st18{fill:#00557E;}
	.st19{fill:#FF7E7E;}
	.st20{fill:#E02B5A;}
	.st21{fill:#EAB1A2;}
	.st22{fill:#385863;}
	.st23{fill:#1C2B2D;}
	.st24{display:inline;fill:#EAB1A2;}
</style>
<g id="Layer_4" class="st0">
	<rect x="-216" y="-89" class="st1" width="1706" height="1599"/>
</g>
<g id="Layer_6">
	<image style="overflow:visible;" width="626" height="417" xlink:href="E4ECCCA4.jpg"  transform="matrix(1 0 0 1 1568 310)">
	</image>
	<g>
		<g>
			
				<image style="overflow:visible;opacity:0.25;" width="1020" height="517" xlink:href="E4ECCCAA.png"  transform="matrix(1 0 0 1 416.4402 440.4402)">
			</image>
			<g>
				<path class="st2" d="M806,762l-14-57l-41-20l-78,55l-11-20l-87.02,7.61l52.76-23.56l79.69-89.67
					c15.71-10.64,65.1-12.92,65.1-12.92L841,508.76l79.69,92.71c0,0,62.86,68.39,105.51,91.19c42.65,22.8,94.29,31.16,94.29,31.16
					l261.05,189.57l5.39-0.15l-266.02-193.18c0,0-51.63-8.36-94.29-31.16c-42.65-22.8-105.51-91.19-105.51-91.19L841.42,505
					l-68.47,92.71c0,0-49.39,2.28-65.1,12.92l-79.69,89.67l-52.76,23.56L452,855l105.44,81.62l821.7-23.16L903,685L806,762z"/>
			</g>
		</g>
		<g>
			
				<image style="overflow:visible;opacity:0.25;" width="896" height="493" xlink:href="E4ECCCB8.png"  transform="matrix(1 0 0 1 539.4402 444.4402)">
			</image>
			<g>
				<path class="st3" d="M1381.55,913.38L1120.5,723.81c0,0-51.63-8.36-94.29-31.16c-42.65-22.8-105.51-91.19-105.51-91.19
					L841,508.76l-68.47,92.71c0,0-49.39,2.28-65.1,12.92l-79.69,89.67l-52.76,23.56L662,720l11,20l78-55l41,20l14,57l97-77
					l476.14,228.45l7.38,3.54L1381.55,913.38z"/>
			</g>
		</g>
	</g>
</g>
<g id="Layer_7">
	<g>
		<g>
			
				<image style="overflow:visible;opacity:0.25;" width="829" height="658" xlink:href="E4ECCCB9.png"  transform="matrix(1 0 0 1 747 328)">
			</image>
			<g>
				<path class="st2" d="M1516.81,941.43l-48.71-168.06c-0.07-0.24-0.16-0.48-0.28-0.7l-34.81-67.1
					c-10.33-19.91-36.33-25.32-53.75-11.19l-68.71,55.75c-1.85,1.5-4.61,0.97-5.77-1.11l-45.2-80.98c-0.38-0.67-0.95-1.22-1.64-1.56
					l-33.82-16.91c-1.77-0.89-3.92-0.28-4.97,1.4l-48.43,77.48c-1.79,2.86-6.12,2.19-6.97-1.07v0
					c-4.21-16.15-24.62-21.25-35.94-8.98l-51.06,55.36c-2.24,2.43-6.29,1.08-6.64-2.2l-1.86-17.66
					c-2.61-24.75-28.47-39.88-51.32-30.02L968,745l53.71-61.15c0.51-0.58,1.17-0.99,1.92-1.18c7.28-1.9,48.37-13.48,82.87-40.71
					c38-30,94-120,94-120l67.43-115.86c1.54-2.64,5.39-2.52,6.75,0.21l56.86,113.71c0.59,1.19,1.76,1.99,3.08,2.11
					c8.85,0.8,43.04,4.59,55.52,16.47c0.25,0.24,0.46,0.51,0.64,0.81l70.28,116.81c0.3,0.49,0.7,0.91,1.18,1.23l44.71,29.49
					c0.6,0.4,1.05,0.96,1.35,1.6L1508,685l-47-31l-71-118c-14-14-58-17-58-17l-61-122l-71,122c0,0-56,90-94,120s-84,41-84,41
					L785,934.23L1524,965l-0.13-22.75C1522.4,944.94,1517.85,945,1516.81,941.43z"/>
			</g>
		</g>
		<g>
			<path class="st3" d="M1506.93,686.93l-44.71-29.49c-0.48-0.32-0.88-0.73-1.18-1.23l-70.28-116.81c-0.18-0.3-0.39-0.57-0.64-0.81
				c-12.48-11.87-46.67-15.67-55.52-16.47c-1.32-0.12-2.49-0.92-3.08-2.11l-56.86-113.71c-1.37-2.73-5.22-2.85-6.75-0.21
				l-67.43,115.86c0,0-56,90-94,120c-34.5,27.23-75.59,38.81-82.87,40.71c-0.74,0.19-1.41,0.6-1.92,1.18L968,745l48.93-21.12
				c22.85-9.86,48.72,5.26,51.32,30.02l1.86,17.66c0.35,3.28,4.4,4.63,6.64,2.2l51.06-55.36c11.32-12.27,31.73-7.17,35.94,8.98v0
				c0.85,3.26,5.19,3.92,6.97,1.07l48.43-77.48c1.05-1.68,3.2-2.28,4.97-1.4l33.82,16.91c0.69,0.34,1.26,0.89,1.64,1.56l45.2,80.98
				c1.16,2.08,3.92,2.61,5.77,1.11l68.71-55.75c17.42-14.13,43.42-8.72,53.75,11.19l34.81,67.1c0.12,0.22,0.21,0.46,0.28,0.7
				l48.71,168.06c1.03,3.57,5.58,3.52,7.06,0.82c0.29-0.54,0.48-1.17,0.47-1.91l-0.34-57.52c0-0.09,0-0.19-0.01-0.28l-15.34-192.71
				c-0.04-0.46-0.18-0.9-0.37-1.3C1507.98,687.88,1507.54,687.32,1506.93,686.93z"/>
		</g>
	</g>
</g>
<g id="Layer_5">
</g>
<g id="Layer_2">
	<g>
		
			<image style="overflow:visible;opacity:0.25;" width="152" height="212" xlink:href="E4ECCCBA.png"  transform="matrix(1 0 0 1 850 696)">
		</image>
		<g>
			<g>
				<polygon class="st4" points="926,786.83 920.37,795.88 927.46,792.7 932.11,813.23 922.82,819.83 932.35,814.94 933.33,818.85 
					925.51,822.27 933.33,820.07 935.28,827.65 923.06,833.02 923.06,836.45 936.02,831.07 938.95,844.02 926.97,849.15 
					939.19,845.49 939.44,846.71 930.39,850.86 939.68,847.69 943.1,862.35 918.42,862.35 918.42,753.35 				"/>
				<polygon class="st5" points="896.67,853.31 910.35,856.49 896.91,851.6 898.13,846.47 910.84,850.86 898.62,844.75 
					901.56,831.31 915.24,836.69 902.29,827.89 913.78,831.31 902.78,825.45 914.26,828.87 903.27,823.25 904.24,818.12 
					914.02,820.8 904.49,816.65 905.47,812.98 915,816.4 905.47,812.25 907.67,802.72 914.26,805.41 907.91,801.74 910.35,790.5 
					916.71,795.14 910.84,788.06 911.82,783.41 916.95,787.57 912.55,780.48 918.42,753.35 918.42,862.35 894.71,862.35 				"/>
			</g>
		</g>
	</g>
	<g>
		
			<image style="overflow:visible;opacity:0.25;" width="162" height="236" xlink:href="E4ECCCBF.png"  transform="matrix(1 0 0 1 259 677)">
		</image>
		<g>
			<g>
				<polygon class="st4" points="342.03,775.38 335.14,786.46 343.83,782.57 349.52,807.72 338.14,815.81 349.82,809.82 
					351.01,814.61 341.43,818.8 351.01,816.11 353.41,825.39 338.44,831.98 338.44,836.17 354.31,829.58 357.9,845.45 
					343.23,851.74 358.2,847.25 358.5,848.75 347.42,853.84 358.8,849.95 362.99,867.91 332.75,867.91 332.75,734.35 				"/>
				<polygon class="st5" points="306.09,856.83 322.86,860.73 306.39,854.74 307.89,848.45 323.46,853.84 308.49,846.35 
					312.08,829.88 328.85,836.47 312.98,825.69 327.06,829.88 313.58,822.69 327.66,826.89 314.18,820 315.38,813.71 327.36,817 
					315.68,811.91 316.87,807.42 328.55,811.61 316.87,806.52 319.57,794.84 327.66,798.14 319.87,793.65 322.86,779.87 
					330.65,785.56 323.46,776.88 324.66,771.19 330.95,776.28 325.56,767.59 332.75,734.35 332.75,867.91 303.7,867.91 				"/>
			</g>
		</g>
	</g>
	<g>
		
			<image style="overflow:visible;opacity:0.25;" width="1157" height="256" xlink:href="E4ECCCB4.png"  transform="matrix(1 0 0 1 -63 758)">
		</image>
		<g>
			<path class="st4" d="M1035.03,868.35c0,0-257-51-380-53s-512,35-643,8s196,135,196,135l515,10L1035.03,868.35z"/>
		</g>
	</g>
	<g>
		
			<image style="overflow:visible;opacity:0.25;" width="250" height="434" xlink:href="E4ECCCB5.png"  transform="matrix(1 0 0 1 129 512)">
		</image>
		<g>
			<g>
				<g>
					<polygon class="st6" points="268.15,671.03 251.08,698.49 272.61,688.84 286.71,751.18 258.5,771.22 287.45,756.37 
						290.42,768.25 266.67,778.64 290.42,771.96 296.35,794.97 259.25,811.29 259.25,821.68 298.58,805.36 307.49,844.69 
						271.12,860.27 308.23,849.14 308.97,852.85 281.51,865.47 309.71,855.82 320.1,900.35 245.15,900.35 245.15,569.35 					"/>
				</g>
				<g>
					<polygon class="st7" points="179.09,872.89 220.65,882.54 179.84,867.7 183.55,852.11 222.14,865.47 185.03,846.92 
						193.94,806.1 235.5,822.43 196.16,795.71 231.04,806.1 197.65,788.29 232.53,798.68 199.13,781.61 202.1,766.02 231.79,774.19 
						202.84,761.57 205.81,750.44 234.76,760.83 205.81,748.21 212.49,719.27 232.53,727.43 213.23,716.3 220.65,682.16 
						239.95,696.26 222.14,674.74 225.11,660.64 240.69,673.25 227.33,651.73 245.15,569.35 245.15,900.35 173.16,900.35 					"/>
				</g>
			</g>
		</g>
	</g>
	<g>
		
			<image style="overflow:visible;opacity:0.25;" width="173" height="299" xlink:href="E4ECCCB6.png"  transform="matrix(1 0 0 1 1291.9471 608.9471)">
		</image>
		<g>
			<g>
				<g>
					<polygon class="st6" points="1388.16,718.23 1376.43,737.11 1391.22,730.48 1400.91,773.32 1381.53,787.1 1401.42,776.89 
						1403.47,785.06 1387.14,792.2 1403.47,787.61 1407.55,803.42 1382.04,814.64 1382.04,821.78 1409.08,810.56 1415.2,837.59 
						1390.2,848.31 1415.71,840.65 1416.22,843.21 1397.34,851.88 1416.73,845.25 1423.87,875.85 1372.35,875.85 1372.35,648.35 
											"/>
				</g>
				<g>
					<polygon class="st7" points="1326.95,856.98 1355.52,863.61 1327.46,853.41 1330.01,842.7 1356.54,851.88 1331.03,839.12 
						1337.15,811.07 1365.72,822.29 1338.68,803.93 1362.66,811.07 1339.7,798.83 1363.68,805.97 1340.72,794.24 1342.76,783.52 
						1363.17,789.14 1343.27,780.46 1345.31,772.81 1365.21,779.95 1345.31,771.28 1349.91,751.39 1363.68,757 1350.42,749.35 
						1355.52,725.88 1368.78,735.58 1356.54,720.78 1358.58,711.09 1369.29,719.76 1360.11,704.97 1372.35,648.35 1372.35,875.85 
						1322.87,875.85 					"/>
				</g>
			</g>
		</g>
	</g>
	<g>
		
			<image style="overflow:visible;opacity:0.25;" width="107" height="187" xlink:href="1639943A.png"  transform="matrix(1 0 0 1 383.164 743.164)">
		</image>
		<g>
			<g>
				<g>
					<polygon class="st6" points="442.76,811.72 435.45,823.47 444.66,819.34 450.7,846.03 438.63,854.61 451.02,848.26 
						452.29,853.34 442.12,857.79 452.29,854.93 454.83,864.78 438.94,871.77 438.94,876.22 455.79,869.23 459.6,886.07 
						444.03,892.75 459.92,887.98 460.23,889.57 448.48,894.97 460.55,890.84 465,909.9 432.91,909.9 432.91,768.18 					"/>
				</g>
				<g>
					<polygon class="st7" points="404.63,898.15 422.42,902.28 404.94,895.92 406.53,889.25 423.06,894.97 407.17,887.03 
						410.98,869.55 428.78,876.54 411.93,865.1 426.87,869.55 412.57,861.92 427.5,866.37 413.21,859.06 414.48,852.39 
						427.19,855.89 414.79,850.48 416.07,845.72 428.46,850.17 416.07,844.76 418.93,832.37 427.5,835.87 419.24,831.1 
						422.42,816.48 430.68,822.52 423.06,813.31 424.33,807.27 431,812.67 425.28,803.46 432.91,768.18 432.91,909.9 402.08,909.9 
											"/>
				</g>
			</g>
		</g>
	</g>
	<g>
		
			<image style="overflow:visible;opacity:0.25;" width="1737" height="832" xlink:href="1639943B.png"  transform="matrix(1 0 0 1 -110.0319 715.6489)">
		</image>
		<g>
			<path class="st6" d="M1568,896c0,0-279-122-587-25s-283,73-362,80s-119-71-357-71S-66,773-66,773l7,712l819,17l808-7V896z"/>
		</g>
	</g>
	<g>
		
			<image style="overflow:visible;opacity:0.25;" width="351" height="668" xlink:href="16399428.png"  transform="matrix(1 0 0 1 -138 443)">
		</image>
		<g>
			<g>
				<polygon class="st8" points="82.84,673.95 52.08,719.19 89.13,704.37 108.65,810.73 59.58,842.65 109.54,819.56 113.74,839.84 
					72.87,855.76 113.48,846.11 121.92,885.42 58.06,910.44 57.34,928.01 124.96,903.13 137.29,970.24 74.74,994.07 138.24,977.82 
					139.24,984.15 91.94,1003.57 140.28,989.21 154.76,1065.21 28.05,1060.01 50.99,500.48 				"/>
				<g>
					<polygon class="st9" points="-81.7,1009.02 -12.11,1028.21 -80.08,1000.29 -72.73,974.2 -8.42,999.45 -69.86,965.52 
						-51.98,897.14 17.14,927.62 -47.5,879.73 10.75,899.71 -44.47,867.28 13.77,887.27 -41.5,856.1 -35.4,829.96 14.21,845.81 
						-33.84,822.48 -28.05,803.87 20.16,823.44 -27.89,800.1 -14.6,751.64 18.71,766.83 -13.14,746.67 1.77,689.48 33.42,714.65 
						4.8,677.04 10.79,653.4 36.26,675.81 15.17,638.5 50.99,500.48 28.05,1060.01 -93.64,1055.02 					"/>
				</g>
			</g>
		</g>
	</g>
	<line class="st10" x1="1121.03" y1="968.35" x2="1121.03" y2="958.35"/>
	<g>
		
			<image style="overflow:visible;opacity:0.25;" width="290" height="546" xlink:href="16399429.png"  transform="matrix(1 0 0 1 1184.0273 568.0273)">
		</image>
		<g>
			<g>
				<polygon class="st8" points="1353.16,756.92 1329.39,795.16 1359.36,781.72 1378.99,868.52 1339.72,896.42 1380.02,875.76 
					1384.16,892.29 1351.09,906.76 1384.16,897.46 1392.42,929.49 1340.76,952.23 1340.76,966.69 1395.52,943.96 1407.92,998.73 
					1357.29,1020.43 1408.96,1004.93 1409.99,1010.09 1371.76,1027.66 1411.03,1014.23 1425.49,1076.23 1321.12,1076.23 
					1321.12,615.35 				"/>
				<g>
					<polygon class="st9" points="1229.15,1037.99 1287.02,1051.43 1230.19,1030.76 1235.35,1009.06 1289.09,1027.66 
						1237.42,1001.83 1249.82,944.99 1307.69,967.73 1252.92,930.52 1301.49,944.99 1254.99,920.19 1303.56,934.66 1257.05,910.89 
						1261.19,889.19 1302.52,900.56 1262.22,882.99 1266.36,867.49 1306.66,881.96 1266.36,864.39 1275.66,824.09 1303.56,835.46 
						1276.69,819.96 1287.02,772.42 1313.89,792.05 1289.09,762.09 1293.22,742.45 1314.92,760.02 1296.32,730.05 1321.12,615.35 
						1321.12,1076.23 1220.89,1076.23 					"/>
				</g>
			</g>
		</g>
	</g>
	<g>
		
			<image style="overflow:visible;opacity:0.25;" width="1805" height="649" xlink:href="1639942A.png"  transform="matrix(1 0 0 1 -207 870)">
		</image>
		<g>
			<path class="st8" d="M1511.91,963.37c0,0-97,1.22-337,24.48s-337-56.3-470-59.97c-133-3.67-248,57.52-323,59.97
				s-583-30.6-530-48.95c53-18.36-14,534.45-14,534.45h1702L1511.91,963.37z"/>
		</g>
	</g>
	<g>
		
			<image style="overflow:visible;opacity:0.15;" width="469" height="663" xlink:href="1639942F.png"  transform="matrix(1 0 0 1 -16 551)">
		</image>
		<g>
			<g>
				<g>
					<g>
						<path class="st11" d="M331.15,916.83c10.84-19.14,18.57-40.29,22.78-62.1c-0.04-0.09-0.11-0.16-0.15-0.25
							c-4.84-12.43-10.26-24.82-16.13-36.81c-0.96-1.97-0.19-4.18,1.8-5.15c2.01-0.98,4.34-0.2,5.31,1.79
							c4.05,8.28,7.86,16.74,11.45,25.27c0.25-2.17,0.54-4.33,0.73-6.5c0.7-8.3,0.88-16.72,0.55-25.05
							c-0.09-2.26,1.63-4.1,3.93-4.19c2.14-0.08,3.82,1.46,3.9,3.6c0.32,7.95,0.17,15.93-0.41,23.89l22.65-22.73
							c0.97-0.97,2.3-1.35,3.57-1.01c1.35,0.36,2.43,1.46,2.81,2.88c0.38,1.4-0.01,2.85-1.03,3.88l-29.28,29.39
							c-2.45,18.58-7.3,36.85-14.45,54.06c-3.23,7.77-7.05,15.57-11.37,23.19c-0.58,1.04-1.56,1.71-2.67,1.88
							c-0.16,0.02-0.33,0.04-0.5,0.04c-1.4,0.01-2.73-0.77-3.47-2.03C330.45,919.6,330.44,918.1,331.15,916.83z"/>
						<g>
							<g>
								<path class="st8" d="M53.57,1040.3c12.83,86.33,98.29,136.4,184.6,123.58c53.96-8.02,98.09-36.2,120.46-77.32
									c13.41-24.63,18.98-53.91,14.17-86.26c-12.82-86.31-94.76-161.82-181.07-149c-32.3,4.8-61.59,20.4-84.89,42.55
									C67.87,930.91,45.55,986.29,53.57,1040.3z"/>
								<g>
									<path class="st11" d="M249.87,946.33c8.31-1.23,10.25,11.68,1.92,12.92C243.47,960.49,241.54,947.57,249.87,946.33z"/>
									<path class="st11" d="M256.57,987.32c8.31-1.23,10.25,11.68,1.92,12.92C250.17,1001.48,248.24,988.56,256.57,987.32z"/>
									<path class="st11" d="M262.87,1033.85c8.31-1.23,10.25,11.68,1.92,12.92C256.48,1048.01,254.54,1035.09,262.87,1033.85z"/>
									<path class="st11" d="M264.83,1079.81c8.31-1.23,10.25,11.68,1.92,12.92C258.44,1093.96,256.5,1081.05,264.83,1079.81z"/>
								</g>
							</g>
							<path class="st12" d="M53.57,1040.3c12.83,86.33,98.29,136.4,184.6,123.58c53.96-8.02,98.09-36.2,120.46-77.32
								c-20.78,17.15-44.27,30.86-69.89,38.99c-37.99,12.04-80.81,11.05-116.41-6.88c-41.3-20.77-69.74-63.02-78.6-108.38
								c-7.6-38.86-1.76-79.57,13.12-116.43C67.87,930.91,45.55,986.29,53.57,1040.3z"/>
						</g>
						<path class="st11" d="M30.43,861.17c1.12-0.7,2.51-0.72,3.71-0.07l28.28,15.17c-2.87-7.45-5.33-15.04-7.34-22.75
							c-0.54-2.07,0.62-4.03,2.69-4.57c2.24-0.59,4.41,0.68,4.97,2.87c2.1,8.06,4.73,16.07,7.81,23.81
							c0.81,2.03,1.71,4.01,2.58,6.01c0.95-9.21,2.14-18.42,3.61-27.51c0.23-1.41,1.14-2.54,2.45-3.04c1.35-0.52,2.91-0.27,4,0.63
							c1.05,0.86,1.55,2.19,1.32,3.57c-2.12,13.19-3.71,26.62-4.73,39.91c-0.01,0.1-0.05,0.18-0.07,0.28
							c10.37,19.65,23.92,37.64,39.85,52.8c1.62,1.54,1.66,4.12,0.1,5.77c-0.62,0.65-1.38,1.04-2.18,1.16
							c-1.08,0.16-2.21-0.18-3.1-1.02c-6.34-6.03-12.27-12.39-17.62-18.88c-11.85-14.39-21.8-30.46-29.54-47.53l-36.55-19.6
							c-1.28-0.68-2.07-1.96-2.11-3.41C28.53,863.28,29.24,861.91,30.43,861.17z"/>
					</g>
					<g>
						<g>
							<g>
								<path class="st8" d="M96.64,805.91c8.79,59.2,68.36,94.51,127.57,85.72c11.22-1.67,22.18-4.89,32.49-9.42
									c44.06-19.28,76.5-62.4,69.37-110.38c-8.79-59.17-74.53-103.33-133.71-94.54l-0.23,0.03
									C133.05,686.23,87.86,746.82,96.64,805.91z"/>
								<g>
									<path class="st11" d="M184.55,766.78c8.31-1.23,10.25,11.68,1.92,12.92C178.16,780.94,176.23,768.02,184.55,766.78z"/>
									<path class="st11" d="M268.75,760.06c8.31-1.23,10.25,11.68,1.92,12.92C262.35,774.21,260.42,761.29,268.75,760.06z"/>
									<path class="st11" d="M213.33,826.14c4.28,5.49,11.11,8.88,18.11,8.65c7.32-0.24,14.09-4.33,17.98-10.47
										c0.9-1.42,2.99,0.14,2.1,1.56c-4.33,6.83-12.06,11.35-20.18,11.51c-7.76,0.16-15.29-3.5-20.05-9.61
										C210.26,826.45,212.3,824.81,213.33,826.14z"/>
									<path class="st13" d="M173.65,807.94c0.26-1.16,0.88-2.22,1.86-3.19c0.55-0.43,1.1-0.85,1.65-1.28
										c1.3-0.79,2.75-1.31,4.36-1.55c2.88-0.33,5.77-0.65,8.65-0.98c1.22-0.22,2.39-0.2,3.51,0.05c1.14,0.1,2.16,0.4,3.06,0.91
										c0.95,0.46,1.67,1.06,2.15,1.81c0.67,0.69,1.05,1.48,1.14,2.38l-0.06,1.76c-0.26,1.16-0.88,2.22-1.86,3.19
										c-0.55,0.43-1.1,0.85-1.65,1.28c-1.3,0.79-2.75,1.31-4.36,1.55c-2.88,0.33-5.77,0.65-8.65,0.98
										c-1.22,0.22-2.39,0.2-3.51-0.05c-1.14-0.1-2.16-0.4-3.06-0.91c-0.95-0.46-1.67-1.06-2.15-1.81
										c-0.67-0.69-1.05-1.48-1.14-2.37C173.61,809.11,173.63,808.53,173.65,807.94z"/>
									<path class="st13" d="M270.16,802.73c0.26-1.16,0.88-2.22,1.86-3.19c0.55-0.43,1.1-0.85,1.65-1.28
										c1.3-0.79,2.75-1.31,4.36-1.55c2.88-0.33,5.77-0.65,8.65-0.98c1.22-0.22,2.39-0.2,3.51,0.05c1.14,0.1,2.16,0.4,3.06,0.91
										c0.95,0.46,1.67,1.06,2.15,1.81c0.67,0.69,1.05,1.48,1.14,2.37l-0.06,1.76c-0.26,1.16-0.88,2.22-1.86,3.19
										c-0.55,0.43-1.1,0.85-1.65,1.28c-1.3,0.79-2.75,1.31-4.36,1.55c-2.88,0.33-5.77,0.65-8.65,0.98
										c-1.22,0.22-2.39,0.2-3.51-0.05c-1.14-0.1-2.16-0.4-3.06-0.91c-0.95-0.46-1.67-1.06-2.15-1.81
										c-0.67-0.69-1.05-1.48-1.14-2.37C270.12,803.9,270.14,803.32,270.16,802.73z"/>
									<g>
										<g>
											<path class="st14" d="M226.8,803.19c0.55,3.5,2.79,6.96,6.24,7.88c2.29,0.59,4.72-0.01,6.99-0.67
												c18.89-5.22,37.32-12.07,55.06-20.44c1.54-0.73,3.15-1.5,4.28-2.81c0.66-0.74,1.13-1.71,1.25-2.68
												c0.11-0.71,0-1.43-0.34-2.1c-1.24-2.44-4.72-2.32-7.44-1.84c-13.79,2.42-27.6,4.84-41.38,7.26
												c-6.49,1.15-14.59,1.29-20.69,3.66c-2.73,1.07-3.87,3.57-4.19,6.43C226.41,799.61,226.55,801.47,226.8,803.19z"/>
										</g>
										<g>
											<path class="st15" d="M226.8,803.19c0.55,3.5,2.79,6.96,6.24,7.88c2.29,0.59,4.72-0.01,6.99-0.67
												c18.89-5.22,37.32-12.07,55.06-20.44c1.54-0.73,3.15-1.5,4.28-2.81c0.66-0.74,1.13-1.71,1.25-2.68
												c-3.92,3.47-9.09,5.25-14.08,6.89c-14.9,4.95-29.89,9.93-45.41,12.11c-3.46,0.49-7.1,0.82-10.26-0.65
												c-2.02-0.95-3.71-2.84-4.29-4.94C226.41,799.61,226.55,801.47,226.8,803.19z"/>
										</g>
									</g>
								</g>
							</g>
							<path class="st12" d="M96.64,805.91c8.79,59.2,68.36,94.51,127.57,85.72c11.22-1.67,22.18-4.89,32.49-9.42
								c-9.24,1.74-18.57,2.73-27.95,2.61c-17.2-0.2-34.64-4.33-49.01-13.74c-16.23-10.65-27.66-27.39-35.18-45.28
								c-12.26-29.12-14.76-62.91-3.74-92.51c9.07-24.33,27.82-45.32,51.32-55.98C133.05,686.23,87.86,746.82,96.64,805.91z"/>
						</g>
						<g>
							<g>
								<g>
									<path class="st16" d="M121.32,718.92c55.95-8.68,111.56-12.17,167.99-16.94c-5.35-9.05-11.34-17.77-18.03-25.8
										c-0.58-0.66-1.12-1.32-1.7-1.98c-6.41-7.43-13.48-14.27-21.27-20.11c-16.73-12.59-37-20.56-57.44-20.05
										c-20.44,0.49-40.88,10.11-52.93,27.26c-5.89,8.39-9.55,18.06-11.99,28.24c-0.24,0.91-0.44,1.84-0.67,2.78
										C123.39,701.01,122.26,710.05,121.32,718.92z"/>
								</g>
								<path class="st17" d="M125.28,692.32c0.56,0,1.13-0.09,1.66-0.25c4.28-1.19,6.44-5.44,10.2-7.43
									c3.69-1.95,6.91,0.8,10.51,1.46c3.24,0.58,5.7-1.11,7.5-3.64c1.43-2.02,2.82-5.12,5.72-4.94c2.63,0.17,4.97,2.34,7.27,3.4
									c2.45,1.15,5.11,1.34,7.51-0.03c2.25-1.29,3.82-3.43,5.55-5.34c1.94-2.09,4.17-3.7,7.17-3c2.67,0.61,5.02,2.36,7.48,3.53
									c2.37,1.16,5,1.86,7.62,1.12c2.85-0.82,4.91-3.06,7.12-4.93c2.24-1.87,4.62-3.05,7.45-1.69c2.57,1.21,4.56,3.36,7.09,4.65
									c2.67,1.38,5.59,1.35,8.29,0.09c2.85-1.33,5.17-3.58,8.03-4.88c7.4-3.41,13.79,4.56,20.34,6.69
									c2.85,0.93,5.88,0.98,8.59-0.43c0.32-0.18,0.61-0.36,0.9-0.56c-0.58-0.66-1.12-1.32-1.7-1.98c-1.24,0.77-2.78,1.13-4.2,1.05
									c-3.93-0.21-7.32-2.81-10.56-4.77c-3.18-1.94-6.76-3.69-10.59-3.42c-3.52,0.23-6.35,2.43-9.18,4.31
									c-2.51,1.7-5.24,3.11-8.25,1.81c-2.5-1.09-4.45-3.13-6.82-4.48c-2.2-1.26-4.64-1.78-7.11-0.88c-2.57,0.91-4.46,3-6.52,4.71
									c-2.27,1.9-4.6,2.97-7.53,1.99c-2.45-0.8-4.59-2.32-6.9-3.41c-2.29-1.09-4.82-1.75-7.32-1.04c-2.47,0.71-4.24,2.57-5.9,4.41
									c-1.59,1.78-3.3,4.21-5.8,4.74c-2.65,0.55-5.18-1.46-7.35-2.68c-2.09-1.18-4.43-2.13-6.86-1.32
									c-2.46,0.79-3.83,2.98-5.2,5.02c-0.72,1.06-1.47,2.24-2.6,2.88c-1.34,0.78-2.88,0.45-4.27,0c-2.76-0.92-5.44-2.35-8.45-1.66
									c-3.49,0.84-5.77,3.67-8.36,5.91c-0.92,0.8-2.4,1.74-3.87,2.17C125.72,690.45,125.51,691.38,125.28,692.32z"/>
							</g>
							<g>
								<g>
									<path class="st17" d="M105.6,745.45c4.6-1.9,9.14-3.69,13.61-5.37c0.9-0.35,1.78-0.69,2.66-1.01
										c3.75-1.41,7.42-2.72,11.06-3.95c0.88-0.32,1.74-0.6,2.6-0.89c2.93-0.99,5.82-1.93,8.69-2.8c0.86-0.29,1.72-0.55,2.59-0.81
										c3.19-1.01,6.37-1.93,9.48-2.79c0.84-0.26,1.7-0.49,2.55-0.7c3.54-1,6.99-1.89,10.42-2.72c0.84-0.23,1.69-0.44,2.51-0.61
										c4-0.97,7.87-1.83,11.69-2.59c0.85-0.18,1.7-0.36,2.55-0.54c3.61-0.7,7.15-1.35,10.6-1.92c0.88-0.16,1.74-0.28,2.59-0.41
										c3.27-0.51,6.49-0.99,9.64-1.41c0.89-0.11,1.75-0.21,2.61-0.31c3.44-0.43,6.81-0.77,10.09-1.05
										c0.89-0.08,1.76-0.15,2.62-0.23c3.59-0.29,7.07-0.49,10.41-0.64c0.92-0.03,1.82-0.06,2.69-0.08
										c4.17-0.17,8.14-0.2,11.92-0.15c0.95-0.01,1.89,0.01,2.82,0.06c3.67,0.06,7.14,0.21,10.44,0.41
										c0.99,0.07,1.96,0.13,2.9,0.21c3.57,0.29,6.91,0.62,10,1.01c1.06,0.14,2.05,0.25,3.06,0.42c3.87,0.51,7.3,1.12,10.29,1.71
										c1.07,0.21,2.08,0.43,3.01,0.64c7.63,1.71,11.57,3.22,11.57,3.22s-3.13-23.23-18.11-29.74c-2.81-1.23-5.78-2.3-8.87-3.25
										c-1.34-0.41-2.69-0.79-4.1-1.17c-3.7-0.96-7.59-1.77-11.58-2.39c-1.2-0.19-2.44-0.35-3.69-0.54
										c-2.54-0.34-5.16-0.61-7.79-0.81c-1.1-0.1-2.21-0.2-3.33-0.25c-3.16-0.22-6.39-0.35-9.62-0.43
										c-1.04-0.01-2.07-0.01-3.11-0.02c-2.47-0.03-4.96,0.02-7.45,0.07c-0.95,0.04-1.88,0.04-2.82,0.1
										c-2.56,0.09-5.12,0.2-7.67,0.37c-0.89,0.05-1.76,0.13-2.62,0.2c-2.74,0.17-5.43,0.41-8.13,0.68
										c-0.86,0.08-1.75,0.18-2.61,0.28c-2.8,0.28-5.56,0.61-8.3,0.97c-0.86,0.1-1.74,0.23-2.6,0.36
										c-2.76,0.38-5.46,0.78-8.15,1.24c-0.86,0.13-1.74,0.26-2.59,0.41c-3.42,0.56-6.78,1.19-10.02,1.83
										c-0.88,0.16-1.73,0.34-2.6,0.52c-3.11,0.65-6.15,1.31-9.07,1.98c-0.87,0.21-1.75,0.39-2.61,0.63
										c-3.28,0.78-6.37,1.58-9.3,2.39c-0.89,0.24-1.79,0.48-2.65,0.74c-2.39,0.67-4.66,1.36-6.73,2.03
										c-0.94,0.3-1.85,0.62-2.7,0.91c-3.31,1.13-6.07,2.2-8.25,3.22c-1.17,0.52-2.16,1.01-2.94,1.47
										c-0.39,0.24-0.73,0.45-1.02,0.66C108.31,714.43,105.6,745.45,105.6,745.45z"/>
								</g>
								<g>
									<path class="st18" d="M272.19,688.01c6.95,9.24,12.5,19.45,16.5,30.3c1.07,0.21,2.08,0.43,3.01,0.64
										c-3.72-10.59-8.93-20.62-15.41-29.77C274.96,688.77,273.6,688.39,272.19,688.01z"/>
									<path class="st18" d="M256.92,685.08c7.37,9.6,13.54,20.04,18.42,31.1c1.06,0.14,2.05,0.25,3.06,0.42
										c-4.71-10.98-10.69-21.39-17.79-30.98C259.41,685.42,258.17,685.26,256.92,685.08z"/>
									<path class="st18" d="M245.8,684.02c6.69,9.65,12.26,20.02,16.64,30.94c0.99,0.07,1.96,0.13,2.9,0.21
										c-4.27-10.86-9.71-21.25-16.21-30.9C248.03,684.17,246.93,684.07,245.8,684.02z"/>
									<path class="st18" d="M233.08,683.58c6.24,9.85,11.62,20.19,16.11,30.91c0.95-0.01,1.89,0.01,2.82,0.06
										c-4.41-10.76-9.72-21.11-15.82-30.95C235.15,683.59,234.11,683.58,233.08,683.58z"/>
									<path class="st18" d="M222.81,683.75c4.63,10.06,8.53,20.42,11.77,30.97c0.92-0.03,1.82-0.06,2.69-0.08
										c-3.22-10.59-7.09-20.95-11.64-30.99C224.68,683.68,223.75,683.69,222.81,683.75z"/>
									<path class="st18" d="M212.52,684.32l9.03,31.27c0.89-0.08,1.76-0.15,2.62-0.23c-3.01-10.41-6.02-20.84-9.02-31.25
										C214.25,684.17,213.38,684.25,212.52,684.32z"/>
									<path class="st18" d="M201.78,685.28c1.8,10.67,4.17,21.25,7.07,31.67c0.89-0.11,1.75-0.21,2.61-0.31
										c-2.9-10.42-5.27-20.98-7.06-31.65C203.53,685.08,202.64,685.18,201.78,685.28z"/>
									<path class="st18" d="M190.88,686.61l5.73,32.16c0.88-0.16,1.74-0.28,2.59-0.41l-5.73-32.11
										C192.62,686.35,191.74,686.48,190.88,686.61z"/>
									<path class="st18" d="M183.47,721.23c0.85-0.18,1.7-0.36,2.55-0.54c-1.46-10.9-2.56-21.86-3.29-32.84
										c-0.86,0.13-1.74,0.26-2.59,0.41C180.87,699.27,181.98,710.28,183.47,721.23z"/>
									<path class="st18" d="M169.27,724.42c0.84-0.23,1.69-0.44,2.51-0.61c-1.01-11.24-1.58-22.45-1.67-33.72
										c-0.88,0.16-1.73,0.34-2.6,0.52C167.65,701.9,168.21,713.2,169.27,724.42z"/>
									<path class="st18" d="M156.3,727.84c0.84-0.26,1.7-0.49,2.55-0.7c-0.57-11.51-0.72-23.04-0.41-34.55
										c-0.87,0.21-1.75,0.39-2.61,0.63C155.55,704.76,155.7,716.3,156.3,727.84z"/>
									<path class="st18" d="M144.23,731.44c0.86-0.29,1.72-0.55,2.59-0.81c-0.51-11.65-0.6-23.34-0.29-35.01
										c-0.89,0.24-1.79,0.48-2.65,0.74C143.62,708.04,143.74,719.75,144.23,731.44z"/>
									<path class="st18" d="M132.94,735.13c0.88-0.32,1.74-0.6,2.6-0.89c0.05-11.98,0.61-23.95,1.6-35.85
										c-0.94,0.3-1.85,0.62-2.7,0.91C133.47,711.22,132.97,723.18,132.94,735.13z"/>
									<path class="st18" d="M119.21,740.09c0.9-0.35,1.78-0.69,2.66-1.01c0.62-12.27,2.04-24.48,4.31-36.57
										c-1.17,0.52-2.16,1.01-2.94,1.47C121.12,715.92,119.75,727.99,119.21,740.09z"/>
								</g>
							</g>
							<g>
								<g>
									<path class="st19" d="M150.89,643.24c1.49,2.01,3.84,2.8,5.69,1.86c-0.27,2.62,0.53,6.08,2.08,7.94
										c1.67,1.98,4.28,1.65,5.95,0.04c1.64-1.62,2.59-4.21,3.46-6.7c-0.16,2.7,1.29,5.44,3.14,6.83c1.85,1.4,4.24,1.23,5.81-0.39
										c1.31-1.34,1.98-3.64,1.82-5.95c0.5,2.26,2.46,4.44,4.15,5.04c1.99,0.74,4.14-0.38,5.32-2.44
										c1.18-2.06,1.44-4.96,0.94-7.62c0.99,1.29,2.3,3.88,3.29,5.19c1.01,1.28,2.48,2.23,3.69,1.6c1.16-0.6,1.63-2.42,1.67-4.12
										c0.04-1.7-0.22-3.44-0.01-5.09c1.75,1.09,3.08,2.89,4.55,4.55c1.47,1.67,3.52,2.98,5.15,1.97c1-0.6,1.61-1.99,1.82-3.46
										c0.21-1.46,0.09-2.99-0.01-4.51c1.6,1.86,4.24,1.55,5.91,0.16c1.65-1.39,2.4-4.39,1.72-7.02c-0.39-1.56-1.2-2.87-2.18-3.92
										c-0.28-0.3-0.59-0.6-0.93-0.87c-1.37-1.15-4.34-1.16-5.85-1.86c-0.1-3.38-0.23-6.89-1.44-10.03
										c-1.21-3.11-3.82-5.72-6.31-5.14c-1.33,0.3-2.43,1.48-3.21,2.89c-0.77,1.42-1.26,3.11-1.74,4.74
										c-1.52-4.13-3.9-7.17-6.81-9.74c-1.28-1.14-2.96-2.05-4.16-1.05c-0.8,0.68-1.11,2-1.35,3.25
										c-0.49,2.57-0.91,5.15-1.21,7.77c-1.25-2.87-3.11-5.03-5.27-6.7c-0.72-0.58-1.57-1.07-2.37-0.95
										c-1.43,0.21-2.2,2.18-2.32,4.06c-0.12,1.85,0.17,3.8-0.04,5.63c-1.15-2.01-2.53-3.66-4.14-5.01
										c-1.63-1.32-3.79-1.75-5.2-0.32c-1.04,1.06-1.45,2.92-1.42,4.72c0.06,1.82,0.51,3.61,0.95,5.35
										c-0.39-0.29-0.77-0.52-1.17-0.7c-0.17-0.05-0.31-0.11-0.48-0.17c-1.07-0.4-2.22-0.47-3.29-0.33
										c-1.65,0.17-3.19,1.38-3.8,3.38c-0.58,1.97-0.02,4.67,1.45,5.86c-2.03-0.28-4.32,1.28-5.11,3.68
										C148.93,638.07,149.42,641.2,150.89,643.24z"/>
								</g>
								<g>
									<path class="st15" d="M150.89,643.24c1.49,2.01,3.84,2.8,5.69,1.86c-0.27,2.62,0.53,6.08,2.08,7.94
										c1.67,1.98,4.28,1.65,5.95,0.04c1.64-1.62,2.59-4.21,3.46-6.7c-0.16,2.7,1.29,5.44,3.14,6.83c1.85,1.4,4.24,1.23,5.81-0.39
										c1.31-1.34,1.98-3.64,1.82-5.95c0.5,2.26,2.46,4.44,4.15,5.04c1.99,0.74,4.14-0.38,5.32-2.44
										c1.18-2.06,1.44-4.96,0.94-7.62c0.99,1.29,2.3,3.88,3.29,5.19c1.01,1.28,2.48,2.23,3.69,1.6c1.16-0.6,1.63-2.42,1.67-4.12
										c0.04-1.7-0.22-3.44-0.01-5.09c1.75,1.09,3.08,2.89,4.55,4.55c1.47,1.67,3.52,2.98,5.15,1.97c1-0.6,1.61-1.99,1.82-3.46
										c0.21-1.46,0.09-2.99-0.01-4.51c1.6,1.86,4.24,1.55,5.91,0.16c1.65-1.39,2.4-4.39,1.72-7.02c-0.39-1.56-1.2-2.87-2.18-3.92
										c0.02,0.69-0.14,1.4-0.44,2.06c-0.76,1.52-2.33,2.52-3.99,2.77c-1.67,0.22-3.41-0.26-4.82-1.17
										c0.65,0.99,0.03,2.52-0.81,3.33c-0.86,0.84-2.11,1.14-3.3,0.99c-1.16-0.15-2.27-0.64-3.29-1.26
										c-1.02-0.59-1.97-1.3-3.03-1.83c0.44,1.16-0.22,2.26-1.27,2.9c-1.08,0.61-2.44,0.55-3.57,0.05
										c-1.11-0.5-2.04-1.4-2.79-2.35c0.42,2.09-1.18,4.39-3.24,4.97c-2.06,0.57-4.48-0.66-5.22-2.65
										c-0.52,1.35-1.42,2.41-2.69,3.16c-1.25,0.72-2.89,0.88-4.14,0.16c-1.07-0.61-1.76-1.86-1.65-3.05
										c-0.22,0.7-0.53,1.25-0.82,1.98c-0.41,0.96-1.05,1.88-1.95,2.41c-0.9,0.53-2.08,0.65-3,0.15c-0.92-0.5-1.45-1.7-1.03-2.66
										c-0.61,1.28-1.85,2.03-3.28,1.87c-1.41-0.19-2.64-1.49-2.61-2.93c0.03-1.44,1.43-2.71,2.83-2.54
										c-1.9-0.3-3.52-1.73-4.56-3.36c-1.01-1.63-1.13-3.84-0.07-5.46c0.91-1.36,2.74-2.08,4.32-1.68
										c-1.07-0.4-2.22-0.47-3.29-0.33c-1.65,0.17-3.19,1.38-3.8,3.38c-0.58,1.97-0.02,4.67,1.45,5.86
										c-2.03-0.28-4.32,1.28-5.11,3.68C148.93,638.07,149.42,641.2,150.89,643.24z"/>
								</g>
							</g>
						</g>
					</g>
					<g>
						<g>
							<g>
								<g>
									<path class="st19" d="M261.33,893.55c7.76,18.62,14.53,37.41,20.29,56.56c1.28,4.16,2.49,8.34,3.62,12.55
										c1.43,5.01,2.77,10.1,4.03,15.19c13.28-1.34,25.49-6.31,36.78-13.56c-1.66-4.03-3.37-8.04-5.15-12
										c-1.76-4.01-3.6-7.96-5.5-11.87c-9.63-19.8-20.74-38.48-32.96-55.4C275.37,887.53,268.38,891.04,261.33,893.55z"/>
								</g>
								<g>
									<path class="st19" d="M288.58,976.55c13.08-2.44,25.7-6.87,37.44-13.13c1.49-0.79,2.53,1.6,1.06,2.39
										c-11.94,6.36-24.81,10.85-38.11,13.32C287.31,979.44,286.93,976.85,288.58,976.55z"/>
									<path class="st19" d="M293.44,977.25c1.88,5.32,3.37,10.78,4.44,16.32c0.32,1.65-2.27,2.03-2.58,0.38
										c-1.02-5.32-2.43-10.54-4.24-15.65C290.49,976.73,292.87,975.67,293.44,977.25z"/>
									<path class="st19" d="M298.91,975.91c1.56,3.25,2.51,6.8,2.77,10.4c0.05,0.7-0.36,1.37-1.1,1.48
										c-0.66,0.1-1.43-0.39-1.48-1.1c-0.25-3.39-1.11-6.66-2.58-9.73C295.79,975.44,298.18,974.39,298.91,975.91z"/>
									<path class="st19" d="M304.04,974.08c2.93,5.38,4.86,11.26,5.71,17.32c0.23,1.66-2.35,2.05-2.58,0.38
										c-0.82-5.85-2.69-11.46-5.52-16.65C300.84,973.66,303.24,972.61,304.04,974.08z"/>
									<path class="st19" d="M309.84,972.07c2.57,4.75,4.67,9.73,6.26,14.89c0.21,0.67,0.03,1.41-0.67,1.72
										c-0.59,0.26-1.51,0.01-1.72-0.67c-1.59-5.16-3.69-10.15-6.26-14.89C306.65,971.65,309.04,970.6,309.84,972.07z"/>
									<path class="st19" d="M313.73,969.24c0.6-0.27,1.49,0,1.72,0.67c1.6,4.68,2.95,9.44,4.03,14.27
										c0.15,0.69-0.44,1.39-1.1,1.48c-0.74,0.11-1.33-0.41-1.48-1.1c-1.03-4.6-2.31-9.13-3.84-13.59
										C312.83,970.3,313.04,969.54,313.73,969.24z"/>
									<path class="st19" d="M319.93,967.95c2.44,4.86,4.37,9.95,5.83,15.19c0.19,0.68-0.46,1.39-1.1,1.48
										c-0.77,0.11-1.29-0.42-1.48-1.1c-1.4-5.01-3.31-9.87-5.64-14.51C316.78,967.5,319.18,966.45,319.93,967.95z"/>
									<path class="st19" d="M323.29,965.1c0.69-0.31,1.38,0.05,1.72,0.67c2.13,3.85,3.98,7.84,5.53,11.96
										c0.59,1.57-1.8,2.63-2.39,1.06c-1.55-4.11-3.4-8.11-5.53-11.96C322.28,966.2,322.69,965.36,323.29,965.1z"/>
								</g>
							</g>
							<path class="st20" d="M281.62,950.11c1.28,4.16,2.49,8.34,3.62,12.55c12.13-2.49,24.06-5.96,35.67-10.37
								c-1.76-4.01-3.6-7.96-5.5-11.87C304.41,944.55,293.13,947.76,281.62,950.11z"/>
						</g>
						<g>
							<g>
								<path class="st19" d="M118.71,886.39c2.1,4.12,6.4,6.61,10.61,8.51c0.09,0.04,0.2,0.08,0.28,0.12
									c0.83,0.38,1.67,0.73,2.52,1.06c4.25,1.81,8.59,3.37,12.96,4.71c0.86,0.27,1.7,0.54,2.55,0.76
									c4.58,1.36,9.21,2.51,13.88,3.43c0.88,0.19,1.72,0.35,2.6,0.52c4.45,0.85,8.93,1.51,13.44,2.01
									c0.87,0.11,1.73,0.22,2.59,0.31c4.05,0.43,8.12,0.73,12.19,0.92c0.86,0.06,1.74,0.09,2.59,0.12
									c5.87,0.24,11.74,0.27,17.59,0.15c0.95-0.04,1.9-0.04,2.85-0.08c7.72-0.22,15.54-0.61,23.37-1.3
									c0.86-0.1,1.75-0.18,2.62-0.26c1.05-0.1,2.09-0.23,3.13-0.36c3.76-0.4,7.54-0.88,11.27-1.49c0.86-0.1,1.74-0.26,2.59-0.41
									c3.65-0.6,7.27-1.29,10.86-2.12c0.85-0.18,1.69-0.38,2.54-0.56c3.38-0.82,6.72-1.72,10.05-2.71c0.83-0.28,1.7-0.54,2.53-0.8
									c3.11-1.02,6.21-2.12,9.24-3.34c0.85-0.34,1.7-0.68,2.53-1.04c0.95-0.38,1.87-0.81,2.79-1.21c3.63-1.63,7.49-3.74,8.93-7.43
									c1.08-2.73,0.62-5.82-0.07-8.69c-1.98-8.17-5.61-15.94-10.62-22.71c-3.84,0.76-7.69,1.49-11.54,2.17
									c-0.88,0.16-1.76,0.31-2.67,0.45c-2.87,0.53-5.77,0.99-8.65,1.44c-0.88,0.16-1.74,0.28-2.62,0.39
									c-3.4,0.53-6.8,1.01-10.24,1.47c-0.78,0.12-1.59,0.21-2.37,0.3l-0.29,0.04c-3.62,0.48-7.24,0.92-10.87,1.3
									c-0.86,0.1-1.75,0.21-2.64,0.29c-2.53,0.27-5.07,0.51-7.61,0.76c-1.34,0.12-2.65,0.23-3.98,0.35
									c-0.89,0.08-1.76,0.13-2.62,0.2c-10.28,0.81-20.58,1.36-30.89,1.62c-0.87,0.05-1.77,0.08-2.67,0.08
									c-5.21,0.14-10.4,0.17-15.61,0.14c-0.88,0-1.73-0.01-2.61-0.04l-0.03,0c-3.85-0.01-7.71-0.1-11.58-0.22
									c-0.88,0-1.76-0.03-2.64-0.09c-4-0.12-7.98-0.3-11.96-0.5c-0.88-0.05-1.76-0.08-2.65-0.16c-4.47-0.24-8.92-0.56-13.38-0.93
									c-0.88-0.05-1.77-0.13-2.63-0.19c-2.9-0.26-5.76-0.52-8.64-0.81c-2.69,3.48-5.41,6.99-7.03,11.08
									C117.13,877.71,116.74,882.46,118.71,886.39z"/>
							</g>
							<g>
								<path class="st20" d="M293.58,895.57c0.85-0.34,1.7-0.68,2.53-1.04c-1-13.17-4.51-26.05-10.51-37.87
									c-0.88,0.16-1.76,0.31-2.67,0.45C289.05,869.04,292.71,882.2,293.58,895.57z"/>
								<path class="st20" d="M271.66,858.94c4.83,13.19,8.24,26.85,10.14,40.77c0.83-0.28,1.7-0.54,2.53-0.8
									c-1.94-13.78-5.3-27.29-10.06-40.36C273.4,858.71,272.54,858.84,271.66,858.94z"/>
								<path class="st20" d="M258.76,860.75c4.98,13.67,8.46,27.83,10.44,42.24c0.85-0.18,1.69-0.38,2.54-0.56
									c-1.97-14.33-5.42-28.41-10.33-42.02C260.54,860.54,259.65,860.65,258.76,860.75z"/>
								<path class="st20" d="M245.25,862.34c3.49,14.4,7.01,28.79,10.5,43.18c0.86-0.1,1.74-0.26,2.59-0.41
									c-3.48-14.34-6.97-28.71-10.46-43.06C247.03,862.15,246.14,862.26,245.25,862.34z"/>
								<path class="st20" d="M231.04,863.65c2.58,14.66,5.13,29.33,7.7,43.97c0.86-0.1,1.75-0.18,2.62-0.26
									c-2.54-14.62-5.12-29.28-7.69-43.92C232.77,863.53,231.9,863.58,231.04,863.65z"/>
								<path class="st20" d="M192.33,908.73c0.86,0.06,1.74,0.09,2.59,0.12c0.85-14.62,2.59-29.18,5.23-43.58
									c-0.87,0.05-1.77,0.08-2.67,0.08C194.89,879.69,193.16,894.17,192.33,908.73z"/>
								<path class="st20" d="M177.55,907.5c0.87,0.11,1.73,0.22,2.59,0.3c0.08-14.13,0.63-28.25,1.73-42.32
									c-0.88,0-1.73-0.01-2.61-0.04l-0.03,0C178.18,879.44,177.64,893.48,177.55,907.5z"/>
								<path class="st20" d="M161.51,904.98c0.88,0.19,1.72,0.35,2.6,0.52c0.52-13.45,1.71-26.9,3.55-40.25
									c-0.88,0-1.76-0.03-2.64-0.09C163.22,878.37,162.06,891.65,161.51,904.98z"/>
								<path class="st20" d="M145.08,900.78c0.86,0.27,1.7,0.54,2.55,0.76c1.21-12.39,3.02-24.7,5.43-36.9
									c-0.88-0.05-1.76-0.08-2.65-0.16C148.05,876.48,146.27,888.61,145.08,900.78z"/>
								<path class="st20" d="M129.6,895.02c0.83,0.38,1.67,0.73,2.52,1.06c1-10.92,2.63-21.78,4.91-32.52
									c-0.88-0.05-1.77-0.13-2.63-0.19C132.18,873.83,130.59,884.39,129.6,895.02z"/>
							</g>
						</g>
						<g>
							<path class="st21" d="M215.36,908.92c7.72-0.22,15.54-0.61,23.37-1.3c0.86-0.1,1.75-0.18,2.62-0.26
								c1.05-0.1,2.09-0.23,3.13-0.36c-2.03-7.39-2.17-15.31-0.3-22.75c2.3-9.15,7.59-17.53,14.87-23.55l-0.29,0.04
								c-3.62,0.48-7.24,0.92-10.87,1.3c-0.86,0.1-1.75,0.21-2.64,0.29c-2.53,0.27-5.07,0.51-7.61,0.76
								c-1.34,0.84-2.63,1.77-3.88,2.81c-7.68,6.37-12.51,15.63-15.23,25.22C216.88,896.96,215.98,902.91,215.36,908.92z"/>
						</g>
						<g>
							<g>
								<g>
									<path class="st19" d="M187.31,1010.54c18.82,0.73,37.77-1.58,55.98-6.33c-0.82-4.63-1.64-9.23-2.43-13.86
										c-0.77-4.29-1.49-8.59-2.15-12.9c-4.31-27.04-7.22-54.29-4.89-81.49c0.63-7.21,1.64-14.49,4.82-20.99
										c3.15-6.49,8.82-12.11,15.86-13.64c-10.17-4.7-22.83-4.89-32.75,0.35c-9.92,5.22-17.57,14.1-22.78,24.03
										c-5.22,9.9-8.15,20.88-10.31,31.87c-4.13,20.99-5.75,42.78-4.57,64.29c0.22,4.32,0.57,8.65,1.02,12.93
										C185.68,1000.08,186.4,1005.34,187.31,1010.54z"/>
								</g>
								<g>
									<path class="st19" d="M187.44,1009.77c18.87-0.65,37.65-2.97,56.11-6.92c1.65-0.35,2.02,2.23,0.38,2.58
										c-18.46,3.95-37.24,6.27-56.11,6.92C186.16,1012.42,185.76,1009.83,187.44,1009.77z"/>
									<g>
										<path class="st19" d="M240.26,1004.24c0.71-0.11,1.36,0.4,1.48,1.1c0.53,3.1,1.06,6.2,1.59,9.3
											c0.12,0.7-0.41,1.38-1.1,1.48c-0.71,0.11-1.36-0.4-1.48-1.1c-0.53-3.1-1.06-6.2-1.59-9.3
											C239.04,1005.03,239.57,1004.34,240.26,1004.24z"/>
										<path class="st19" d="M233.54,1006.78c-0.18-1.67,2.41-2.06,2.58-0.38c0.49,4.61,1.21,9.19,2.16,13.73
											c0.34,1.65-2.24,2.02-2.58,0.38C234.75,1015.97,234.03,1011.39,233.54,1006.78z"/>
										<path class="st19" d="M228.1,1007.73c-0.11-0.67,0.41-1.41,1.1-1.48c0.72-0.07,1.36,0.38,1.48,1.1
											c0.39,2.29,0.66,4.59,0.8,6.9c0.04,0.68-0.36,1.41-1.1,1.48c-0.66,0.07-1.44-0.37-1.48-1.1
											C228.76,1012.32,228.49,1010.02,228.1,1007.73z"/>
										<path class="st19" d="M222.17,1008.54c-0.24-1.66,2.34-2.05,2.58-0.38c0.66,4.61,1.32,9.22,1.98,13.82
											c0.24,1.66-2.34,2.05-2.58,0.38C223.49,1017.76,222.83,1013.15,222.17,1008.54z"/>
										<path class="st19" d="M216.49,1009.04c0-0.71,0.82-1.22,1.46-1.14c0.77,0.09,1.13,0.75,1.14,1.46
											c0.02,3.26,0.28,6.51,0.72,9.74c0.23,1.66-2.36,2.05-2.58,0.38C216.75,1016.02,216.52,1012.53,216.49,1009.04z"/>
										<path class="st19" d="M210.09,1010.12c-0.02-0.7,0.34-1.37,1.1-1.48c0.63-0.09,1.46,0.39,1.48,1.1
											c0.15,5.01,0.73,9.98,1.74,14.89c0.34,1.65-2.25,2.03-2.58,0.38C210.82,1020.1,210.24,1015.12,210.09,1010.12z"/>
										<path class="st19" d="M203.49,1010.58c-0.02-0.7,0.34-1.37,1.1-1.48c0.63-0.09,1.46,0.39,1.48,1.1
											c0.09,3.15,0.36,6.29,0.79,9.42c0.1,0.7-0.4,1.38-1.1,1.48c-0.69,0.1-1.39-0.4-1.48-1.1
											C203.84,1016.87,203.58,1013.73,203.49,1010.58z"/>
										<path class="st19" d="M197.21,1011c-0.03-0.7,0.35-1.37,1.1-1.48c0.64-0.1,1.45,0.39,1.48,1.1
											c0.24,5.27,0.71,10.53,1.38,15.76c0.22,1.67-2.37,2.05-2.58,0.38C197.92,1021.52,197.46,1016.27,197.21,1011z"/>
										<path class="st19" d="M191.13,1011.67c-0.06-0.7,0.37-1.38,1.1-1.48c0.67-0.1,1.42,0.39,1.48,1.1
											c0.31,3.52,0.76,7.03,1.36,10.52c0.28,1.66-2.3,2.04-2.58,0.38C191.89,1018.7,191.44,1015.2,191.13,1011.67z"/>
									</g>
								</g>
							</g>
							<path class="st20" d="M185.1,994.81c18.66-0.33,37.29-1.77,55.76-4.46c-0.77-4.29-1.49-8.59-2.15-12.9
								c-18.05,2.63-36.32,4.15-54.62,4.43C184.3,986.2,184.65,990.52,185.1,994.81z"/>
						</g>
					</g>
				</g>
			</g>
		</g>
	</g>
	<g>
		
			<image style="overflow:visible;opacity:0.25;" width="1822" height="626" xlink:href="1639942E.png"  transform="matrix(1 0 0 1 -231 956)">
		</image>
		<g>
			<path class="st22" d="M-193,1155.95c0,0,237-127.4,777,0c0,0,314,49.28,625-66.11s330-40.87,330-40.87v459.14V1561H-193V1155.95z
				"/>
		</g>
	</g>
	<g>
		
			<image style="overflow:visible;opacity:0.3;" width="1759" height="449" xlink:href="16399415.png"  transform="matrix(1 0 0 1 -152 1063)">
		</image>
		<g>
			<path class="st23" d="M1525.91,1297.53c0,0-135-137.86-334-121.64s-203,89.2-438,87.18c-235-2.03-239-139.89-374-133.81
				s-240.8,80.08-410.9,136.34C-201.09,1321.86,6,1458,6,1458l1533.03-17.65L1525.91,1297.53z"/>
		</g>
	</g>
</g>
<g id="Layer_1">
	
		<image style="overflow:visible;" width="1440" height="1500" xlink:href="หิมะ1-01.png"  transform="matrix(0.6924 0 0 0.6924 -1468 386)">
	</image>
</g>
<g id="Layer_3" class="st0">
	<rect x="503" y="519" class="st24" width="679" height="301"/>
</g>
</svg>
